solid millifluidic_device
  facet normal -1.000000 0.000000 0.000000
    outer loop
      vertex 0.000000 63.181341 0.000000
      vertex 0.000000 0.000000 0.000000
      vertex 0.000000 0.000000 6.222819
    endloop
  endfacet
  facet normal -1.000000 0.000000 0.000000
    outer loop
      vertex 0.000000 41.681068 2.117592
      vertex 0.000000 0.000000 6.222819
      vertex 0.000000 32.076326 10.000000
    endloop
  endfacet
  facet normal -1.000000 0.000000 0.000000
    outer loop
      vertex 0.000000 0.000000 10.000000
      vertex 0.000000 32.076326 10.000000
      vertex 0.000000 0.000000 6.222819
    endloop
  endfacet
  facet normal -1.000000 0.000000 0.000000
    outer loop
      vertex 0.000000 40.280901 3.266679
      vertex 0.000000 32.076326 10.000000
      vertex 0.000000 38.238371 10.000000
    endloop
  endfacet
  facet normal -1.000000 0.000000 0.000000
    outer loop
      vertex 0.000000 39.755104 5.000000
      vertex 0.000000 38.238371 10.000000
      vertex 0.000000 41.271838 10.000000
    endloop
  endfacet
  facet normal -1.000000 0.000000 0.000000
    outer loop
      vertex 0.000000 40.280901 6.733321
      vertex 0.000000 41.271838 10.000000
      vertex 0.000000 44.261361 10.000000
    endloop
  endfacet
  facet normal -1.000000 0.000000 0.000000
    outer loop
      vertex 0.000000 41.681068 7.882408
      vertex 0.000000 44.261361 10.000000
      vertex 0.000000 63.181341 10.000000
    endloop
  endfacet
  facet normal -1.000000 0.000000 0.000000
    outer loop
      vertex 0.000000 63.181341 0.000000
      vertex 0.000000 57.519485 0.557644
      vertex 0.000000 63.181341 10.000000
    endloop
  endfacet
  facet normal -1.000000 0.000000 0.000000
    outer loop
      vertex 0.000000 43.483661 8.059948
      vertex 0.000000 63.181341 10.000000
      vertex 0.000000 57.519485 0.557644
    endloop
  endfacet
  facet normal -1.000000 0.000000 0.000000
    outer loop
      vertex 0.000000 63.181341 0.000000
      vertex 0.000000 63.181341 10.000000
      vertex 0.000000 85.750000 0.000000
    endloop
  endfacet
  facet normal -1.000000 0.000000 0.000000
    outer loop
      vertex 0.000000 85.750000 10.000000
      vertex 0.000000 85.750000 0.000000
      vertex 0.000000 63.181341 10.000000
    endloop
  endfacet
  facet normal -1.000000 0.000000 0.000000
    outer loop
      vertex 0.000000 45.081100 7.206100
      vertex 0.000000 57.519485 0.557644
      vertex 0.000000 48.141047 1.481340
    endloop
  endfacet
  facet normal -1.000000 0.000000 -0.000000
    outer loop
      vertex 0.000000 45.934948 5.608661
      vertex 0.000000 48.141047 1.481340
      vertex 0.000000 45.553542 1.736187
    endloop
  endfacet
  facet normal -1.000000 0.000000 0.000000
    outer loop
      vertex 0.000000 45.757408 3.806068
      vertex 0.000000 45.553542 1.736187
      vertex 0.000000 44.170492 1.872405
    endloop
  endfacet
  facet normal -1.000000 0.000000 0.000000
    outer loop
      vertex 0.000000 44.806121 2.646922
      vertex 0.000000 44.170492 1.872405
      vertex 0.000000 43.483661 1.940052
    endloop
  endfacet
  facet normal 1.000000 0.000000 0.000000
    outer loop
      vertex 127.150000 0.000000 6.222819
      vertex 127.150000 0.000000 0.000000
      vertex 127.150000 63.181341 0.000000
    endloop
  endfacet
  facet normal 1.000000 -0.000000 0.000000
    outer loop
      vertex 127.150000 32.076326 10.000000
      vertex 127.150000 0.000000 6.222819
      vertex 127.150000 41.681068 2.117592
    endloop
  endfacet
  facet normal 1.000000 -0.000000 0.000000
    outer loop
      vertex 127.150000 0.000000 10.000000
      vertex 127.150000 0.000000 6.222819
      vertex 127.150000 32.076326 10.000000
    endloop
  endfacet
  facet normal 1.000000 0.000000 0.000000
    outer loop
      vertex 127.150000 40.280901 3.266679
      vertex 127.150000 38.238371 10.000000
      vertex 127.150000 32.076326 10.000000
    endloop
  endfacet
  facet normal 1.000000 0.000000 -0.000000
    outer loop
      vertex 127.150000 39.755104 5.000000
      vertex 127.150000 41.271838 10.000000
      vertex 127.150000 38.238371 10.000000
    endloop
  endfacet
  facet normal 1.000000 0.000000 0.000000
    outer loop
      vertex 127.150000 40.280901 6.733321
      vertex 127.150000 44.261361 10.000000
      vertex 127.150000 41.271838 10.000000
    endloop
  endfacet
  facet normal 1.000000 0.000000 0.000000
    outer loop
      vertex 127.150000 41.681068 7.882408
      vertex 127.150000 63.181341 10.000000
      vertex 127.150000 44.261361 10.000000
    endloop
  endfacet
  facet normal 1.000000 -0.000000 0.000000
    outer loop
      vertex 127.150000 43.483661 8.059948
      vertex 127.150000 57.519485 0.557644
      vertex 127.150000 63.181341 10.000000
    endloop
  endfacet
  facet normal 1.000000 -0.000000 0.000000
    outer loop
      vertex 127.150000 63.181341 0.000000
      vertex 127.150000 63.181341 10.000000
      vertex 127.150000 57.519485 0.557644
    endloop
  endfacet
  facet normal 1.000000 -0.000000 0.000000
    outer loop
      vertex 127.150000 85.750000 0.000000
      vertex 127.150000 85.750000 10.000000
      vertex 127.150000 63.181341 0.000000
    endloop
  endfacet
  facet normal 1.000000 -0.000000 0.000000
    outer loop
      vertex 127.150000 85.750000 10.000000
      vertex 127.150000 63.181341 10.000000
      vertex 127.150000 63.181341 0.000000
    endloop
  endfacet
  facet normal 1.000000 0.000000 0.000000
    outer loop
      vertex 127.150000 45.081100 7.206100
      vertex 127.150000 48.141047 1.481340
      vertex 127.150000 57.519485 0.557644
    endloop
  endfacet
  facet normal 1.000000 0.000000 0.000000
    outer loop
      vertex 127.150000 45.934948 5.608661
      vertex 127.150000 45.553542 1.736187
      vertex 127.150000 48.141047 1.481340
    endloop
  endfacet
  facet normal 1.000000 0.000000 0.000000
    outer loop
      vertex 127.150000 45.757408 3.806068
      vertex 127.150000 44.170492 1.872405
      vertex 127.150000 45.553542 1.736187
    endloop
  endfacet
  facet normal 1.000000 0.000000 0.000000
    outer loop
      vertex 127.150000 44.806121 2.646922
      vertex 127.150000 43.483661 1.940052
      vertex 127.150000 44.170492 1.872405
    endloop
  endfacet
  facet normal -0.000000 0.098017 0.995185
    outer loop
      vertex 127.150000 42.875000 2.000000
      vertex 0.000000 42.289729 2.057644
      vertex 127.150000 42.289729 2.057644
    endloop
  endfacet
  facet normal -0.000000 0.098017 0.995185
    outer loop
      vertex -0.000000 42.875000 2.000000
      vertex 0.000000 42.289729 2.057644
      vertex 127.150000 42.875000 2.000000
    endloop
  endfacet
  facet normal -0.000000 0.290285 0.956940
    outer loop
      vertex 127.150000 42.289729 2.057644
      vertex 0.000000 41.726950 2.228361
      vertex 127.150000 41.726950 2.228361
    endloop
  endfacet
  facet normal -0.000000 0.290285 0.956940
    outer loop
      vertex 0.000000 42.289729 2.057644
      vertex 0.000000 41.726950 2.228361
      vertex 127.150000 42.289729 2.057644
    endloop
  endfacet
  facet normal -0.000000 -0.098017 0.995185
    outer loop
      vertex 0.000000 42.875000 2.000000
      vertex 127.150000 42.875000 2.000000
      vertex 0.000000 43.460271 2.057644
    endloop
  endfacet
  facet normal -0.000000 -0.098017 0.995185
    outer loop
      vertex 127.150000 43.460271 2.057644
      vertex 0.000000 43.460271 2.057644
      vertex 127.150000 42.875000 2.000000
    endloop
  endfacet
  facet normal -0.000000 0.471397 0.881921
    outer loop
      vertex 127.150000 41.726950 2.228361
      vertex 0.000000 41.208289 2.505591
      vertex 127.150000 41.208289 2.505591
    endloop
  endfacet
  facet normal -0.000000 0.471397 0.881921
    outer loop
      vertex 0.000000 41.726950 2.228361
      vertex 0.000000 41.208289 2.505591
      vertex 127.150000 41.726950 2.228361
    endloop
  endfacet
  facet normal -0.000000 0.634393 0.773010
    outer loop
      vertex 127.150000 41.208289 2.505591
      vertex 0.000000 40.753680 2.878680
      vertex 127.150000 40.753680 2.878680
    endloop
  endfacet
  facet normal -0.000000 0.634393 0.773010
    outer loop
      vertex 0.000000 41.208289 2.505591
      vertex 0.000000 40.753680 2.878680
      vertex 127.150000 41.208289 2.505591
    endloop
  endfacet
  facet normal -0.000000 0.773010 0.634393
    outer loop
      vertex 127.150000 40.753680 2.878680
      vertex 0.000000 40.380591 3.333289
      vertex 127.150000 40.380591 3.333289
    endloop
  endfacet
  facet normal -0.000000 0.773010 0.634393
    outer loop
      vertex -0.000000 40.753680 2.878680
      vertex 0.000000 40.380591 3.333289
      vertex 127.150000 40.753680 2.878680
    endloop
  endfacet
  facet normal -0.000000 0.881921 0.471397
    outer loop
      vertex 127.150000 40.380591 3.333289
      vertex 0.000000 40.103361 3.851950
      vertex 127.150000 40.103361 3.851950
    endloop
  endfacet
  facet normal -0.000000 0.881921 0.471397
    outer loop
      vertex 0.000000 40.380591 3.333289
      vertex 0.000000 40.103361 3.851950
      vertex 127.150000 40.380591 3.333289
    endloop
  endfacet
  facet normal -0.000000 0.956940 0.290285
    outer loop
      vertex 127.150000 40.103361 3.851950
      vertex 0.000000 39.932644 4.414729
      vertex 127.150000 39.932644 4.414729
    endloop
  endfacet
  facet normal -0.000000 0.956940 0.290285
    outer loop
      vertex -0.000000 40.103361 3.851950
      vertex 0.000000 39.932644 4.414729
      vertex 127.150000 40.103361 3.851950
    endloop
  endfacet
  facet normal -0.000000 0.995185 0.098017
    outer loop
      vertex 127.150000 39.932644 4.414729
      vertex 0.000000 39.875000 5.000000
      vertex 127.150000 39.875000 5.000000
    endloop
  endfacet
  facet normal -0.000000 0.995185 0.098017
    outer loop
      vertex -0.000000 39.932644 4.414729
      vertex 0.000000 39.875000 5.000000
      vertex 127.150000 39.932644 4.414729
    endloop
  endfacet
  facet normal 0.000000 0.995185 -0.098017
    outer loop
      vertex 127.150000 39.875000 5.000000
      vertex 0.000000 39.932644 5.585271
      vertex 127.150000 39.932644 5.585271
    endloop
  endfacet
  facet normal 0.000000 0.995185 -0.098017
    outer loop
      vertex 0.000000 39.875000 5.000000
      vertex 0.000000 39.932644 5.585271
      vertex 127.150000 39.875000 5.000000
    endloop
  endfacet
  facet normal 0.000000 0.956940 -0.290285
    outer loop
      vertex 127.150000 39.932644 5.585271
      vertex 0.000000 40.103361 6.148050
      vertex 127.150000 40.103361 6.148050
    endloop
  endfacet
  facet normal 0.000000 0.956940 -0.290285
    outer loop
      vertex -0.000000 39.932644 5.585271
      vertex 0.000000 40.103361 6.148050
      vertex 127.150000 39.932644 5.585271
    endloop
  endfacet
  facet normal 0.000000 0.881921 -0.471397
    outer loop
      vertex 127.150000 40.103361 6.148050
      vertex 0.000000 40.380591 6.666711
      vertex 127.150000 40.380591 6.666711
    endloop
  endfacet
  facet normal 0.000000 0.881921 -0.471397
    outer loop
      vertex -0.000000 40.103361 6.148050
      vertex 0.000000 40.380591 6.666711
      vertex 127.150000 40.103361 6.148050
    endloop
  endfacet
  facet normal 0.000000 0.773010 -0.634393
    outer loop
      vertex 127.150000 40.380591 6.666711
      vertex 0.000000 40.753680 7.121320
      vertex 127.150000 40.753680 7.121320
    endloop
  endfacet
  facet normal 0.000000 0.773010 -0.634393
    outer loop
      vertex -0.000000 40.380591 6.666711
      vertex 0.000000 40.753680 7.121320
      vertex 127.150000 40.380591 6.666711
    endloop
  endfacet
  facet normal 0.000000 0.634393 -0.773010
    outer loop
      vertex 127.150000 40.753680 7.121320
      vertex 0.000000 41.208289 7.494409
      vertex 127.150000 41.208289 7.494409
    endloop
  endfacet
  facet normal 0.000000 0.634393 -0.773010
    outer loop
      vertex 0.000000 40.753680 7.121320
      vertex 0.000000 41.208289 7.494409
      vertex 127.150000 40.753680 7.121320
    endloop
  endfacet
  facet normal 0.000000 0.471397 -0.881921
    outer loop
      vertex 127.150000 41.208289 7.494409
      vertex 0.000000 41.726950 7.771639
      vertex 127.150000 41.726950 7.771639
    endloop
  endfacet
  facet normal 0.000000 0.471397 -0.881921
    outer loop
      vertex 0.000000 41.208289 7.494409
      vertex 0.000000 41.726950 7.771639
      vertex 127.150000 41.208289 7.494409
    endloop
  endfacet
  facet normal 0.000000 0.290285 -0.956940
    outer loop
      vertex 127.150000 41.726950 7.771639
      vertex 0.000000 42.289729 7.942356
      vertex 127.150000 42.289729 7.942356
    endloop
  endfacet
  facet normal 0.000000 0.290285 -0.956940
    outer loop
      vertex 0.000000 41.726950 7.771639
      vertex 0.000000 42.289729 7.942356
      vertex 127.150000 41.726950 7.771639
    endloop
  endfacet
  facet normal 0.000000 0.098017 -0.995185
    outer loop
      vertex 127.150000 42.289729 7.942356
      vertex 0.000000 42.875000 8.000000
      vertex 127.150000 42.875000 8.000000
    endloop
  endfacet
  facet normal 0.000000 0.098017 -0.995185
    outer loop
      vertex -0.000000 42.289729 7.942356
      vertex 0.000000 42.875000 8.000000
      vertex 127.150000 42.289729 7.942356
    endloop
  endfacet
  facet normal 0.000000 -0.098017 -0.995185
    outer loop
      vertex 0.000000 43.460271 7.942356
      vertex 127.150000 43.460271 7.942356
      vertex -0.000000 42.875000 8.000000
    endloop
  endfacet
  facet normal 0.000000 -0.098017 -0.995185
    outer loop
      vertex 127.150000 42.875000 8.000000
      vertex -0.000000 42.875000 8.000000
      vertex 127.150000 43.460271 7.942356
    endloop
  endfacet
  facet normal 0.000000 -0.290285 -0.956940
    outer loop
      vertex 0.000000 44.023050 7.771639
      vertex 127.150000 44.023050 7.771639
      vertex -0.000000 43.460271 7.942356
    endloop
  endfacet
  facet normal 0.000000 -0.290285 -0.956940
    outer loop
      vertex 127.150000 43.460271 7.942356
      vertex -0.000000 43.460271 7.942356
      vertex 127.150000 44.023050 7.771639
    endloop
  endfacet
  facet normal 0.000000 -0.471397 -0.881921
    outer loop
      vertex 0.000000 44.541711 7.494409
      vertex 127.150000 44.541711 7.494409
      vertex -0.000000 44.023050 7.771639
    endloop
  endfacet
  facet normal 0.000000 -0.471397 -0.881921
    outer loop
      vertex 127.150000 44.023050 7.771639
      vertex -0.000000 44.023050 7.771639
      vertex 127.150000 44.541711 7.494409
    endloop
  endfacet
  facet normal 0.000000 -0.634393 -0.773010
    outer loop
      vertex 0.000000 44.996320 7.121320
      vertex 127.150000 44.996320 7.121320
      vertex 0.000000 44.541711 7.494409
    endloop
  endfacet
  facet normal 0.000000 -0.634393 -0.773010
    outer loop
      vertex 127.150000 44.541711 7.494409
      vertex 0.000000 44.541711 7.494409
      vertex 127.150000 44.996320 7.121320
    endloop
  endfacet
  facet normal 0.000000 -0.773010 -0.634393
    outer loop
      vertex 0.000000 45.369409 6.666711
      vertex 127.150000 45.369409 6.666711
      vertex -0.000000 44.996320 7.121320
    endloop
  endfacet
  facet normal 0.000000 -0.773010 -0.634393
    outer loop
      vertex 127.150000 44.996320 7.121320
      vertex -0.000000 44.996320 7.121320
      vertex 127.150000 45.369409 6.666711
    endloop
  endfacet
  facet normal 0.000000 -0.881921 -0.471397
    outer loop
      vertex 0.000000 45.646639 6.148050
      vertex 127.150000 45.646639 6.148050
      vertex 0.000000 45.369409 6.666711
    endloop
  endfacet
  facet normal 0.000000 -0.881921 -0.471397
    outer loop
      vertex 127.150000 45.369409 6.666711
      vertex 0.000000 45.369409 6.666711
      vertex 127.150000 45.646639 6.148050
    endloop
  endfacet
  facet normal 0.000000 -0.956940 -0.290285
    outer loop
      vertex 0.000000 45.817356 5.585271
      vertex 127.150000 45.817356 5.585271
      vertex -0.000000 45.646639 6.148050
    endloop
  endfacet
  facet normal 0.000000 -0.956940 -0.290285
    outer loop
      vertex 127.150000 45.646639 6.148050
      vertex -0.000000 45.646639 6.148050
      vertex 127.150000 45.817356 5.585271
    endloop
  endfacet
  facet normal 0.000000 -0.995185 -0.098017
    outer loop
      vertex 0.000000 45.875000 5.000000
      vertex 127.150000 45.875000 5.000000
      vertex 0.000000 45.817356 5.585271
    endloop
  endfacet
  facet normal 0.000000 -0.995185 -0.098017
    outer loop
      vertex 127.150000 45.817356 5.585271
      vertex 0.000000 45.817356 5.585271
      vertex 127.150000 45.875000 5.000000
    endloop
  endfacet
  facet normal -0.000000 -0.995185 0.098017
    outer loop
      vertex 0.000000 45.817356 4.414729
      vertex 127.150000 45.817356 4.414729
      vertex 0.000000 45.875000 5.000000
    endloop
  endfacet
  facet normal -0.000000 -0.995185 0.098017
    outer loop
      vertex 127.150000 45.875000 5.000000
      vertex 0.000000 45.875000 5.000000
      vertex 127.150000 45.817356 4.414729
    endloop
  endfacet
  facet normal -0.000000 -0.956940 0.290285
    outer loop
      vertex 0.000000 45.646639 3.851950
      vertex 127.150000 45.646639 3.851950
      vertex 0.000000 45.817356 4.414729
    endloop
  endfacet
  facet normal -0.000000 -0.956940 0.290285
    outer loop
      vertex 127.150000 45.817356 4.414729
      vertex 0.000000 45.817356 4.414729
      vertex 127.150000 45.646639 3.851950
    endloop
  endfacet
  facet normal -0.000000 -0.881921 0.471397
    outer loop
      vertex 0.000000 45.369409 3.333289
      vertex 127.150000 45.369409 3.333289
      vertex 0.000000 45.646639 3.851950
    endloop
  endfacet
  facet normal -0.000000 -0.881921 0.471397
    outer loop
      vertex 127.150000 45.646639 3.851950
      vertex 0.000000 45.646639 3.851950
      vertex 127.150000 45.369409 3.333289
    endloop
  endfacet
  facet normal -0.000000 -0.773010 0.634393
    outer loop
      vertex 0.000000 44.996320 2.878680
      vertex 127.150000 44.996320 2.878680
      vertex 0.000000 45.369409 3.333289
    endloop
  endfacet
  facet normal -0.000000 -0.773010 0.634393
    outer loop
      vertex 127.150000 45.369409 3.333289
      vertex 0.000000 45.369409 3.333289
      vertex 127.150000 44.996320 2.878680
    endloop
  endfacet
  facet normal -0.000000 -0.634393 0.773010
    outer loop
      vertex 0.000000 44.541711 2.505591
      vertex 127.150000 44.541711 2.505591
      vertex 0.000000 44.996320 2.878680
    endloop
  endfacet
  facet normal -0.000000 -0.634393 0.773010
    outer loop
      vertex 127.150000 44.996320 2.878680
      vertex 0.000000 44.996320 2.878680
      vertex 127.150000 44.541711 2.505591
    endloop
  endfacet
  facet normal -0.000000 -0.471397 0.881921
    outer loop
      vertex 0.000000 44.023050 2.228361
      vertex 127.150000 44.023050 2.228361
      vertex 0.000000 44.541711 2.505591
    endloop
  endfacet
  facet normal -0.000000 -0.471397 0.881921
    outer loop
      vertex 127.150000 44.541711 2.505591
      vertex 0.000000 44.541711 2.505591
      vertex 127.150000 44.023050 2.228361
    endloop
  endfacet
  facet normal -0.000000 -0.290285 0.956940
    outer loop
      vertex 0.000000 43.460271 2.057644
      vertex 127.150000 43.460271 2.057644
      vertex -0.000000 44.023050 2.228361
    endloop
  endfacet
  facet normal -0.000000 -0.290285 0.956940
    outer loop
      vertex 127.150000 44.023050 2.228361
      vertex -0.000000 44.023050 2.228361
      vertex 127.150000 43.460271 2.057644
    endloop
  endfacet
  facet normal 0.000000 0.000000 -1.000000
    outer loop
      vertex 127.150000 85.750000 0.000000
      vertex 0.000000 0.000000 0.000000
      vertex 0.000000 85.750000 0.000000
    endloop
  endfacet
  facet normal 0.000000 0.000000 -1.000000
    outer loop
      vertex 127.150000 0.000000 0.000000
      vertex 0.000000 0.000000 0.000000
      vertex 127.150000 85.750000 0.000000
    endloop
  endfacet
  facet normal -0.000000 0.000000 1.000000
    outer loop
      vertex 127.150000 85.750000 10.000000
      vertex 0.000000 0.000000 10.000000
      vertex 127.150000 0.000000 10.000000
    endloop
  endfacet
  facet normal -0.000000 0.000000 1.000000
    outer loop
      vertex 0.000000 85.750000 10.000000
      vertex 0.000000 0.000000 10.000000
      vertex 127.150000 85.750000 10.000000
    endloop
  endfacet
  facet normal 0.000000 -1.000000 0.000000
    outer loop
      vertex 127.150000 0.000000 10.000000
      vertex 0.000000 0.000000 0.000000
      vertex 127.150000 0.000000 0.000000
    endloop
  endfacet
  facet normal 0.000000 -1.000000 0.000000
    outer loop
      vertex 0.000000 0.000000 10.000000
      vertex 0.000000 0.000000 0.000000
      vertex 127.150000 0.000000 10.000000
    endloop
  endfacet
  facet normal 0.000000 1.000000 -0.000000
    outer loop
      vertex 127.150000 85.750000 10.000000
      vertex 0.000000 85.750000 0.000000
      vertex 0.000000 85.750000 10.000000
    endloop
  endfacet
  facet normal 0.000000 1.000000 -0.000000
    outer loop
      vertex 127.150000 85.750000 0.000000
      vertex 0.000000 85.750000 0.000000
      vertex 127.150000 85.750000 10.000000
    endloop
  endfacet
endsolid millifluidic_device
